<svg width="20" height="20" viewBox="0 0 20 20" fill="none" xmlns="http://www.w3.org/2000/svg">
<circle cx="10" cy="10" r="10" fill="#606775"/>
<path d="M8.28125 5H6.09375C5.48969 5 5 5.48969 5 6.09375V8.28125C5 8.88531 5.48969 9.375 6.09375 9.375H8.28125C8.88531 9.375 9.375 8.88531 9.375 8.28125V6.09375C9.375 5.48969 8.88531 5 8.28125 5Z" fill="white"/>
<path d="M13.9062 5H11.7188C11.1147 5 10.625 5.48969 10.625 6.09375V8.28125C10.625 8.88531 11.1147 9.375 11.7188 9.375H13.9062C14.5103 9.375 15 8.88531 15 8.28125V6.09375C15 5.48969 14.5103 5 13.9062 5Z" fill="white"/>
<path d="M8.28125 10.625H6.09375C5.48969 10.625 5 11.1147 5 11.7188V13.9062C5 14.5103 5.48969 15 6.09375 15H8.28125C8.88531 15 9.375 14.5103 9.375 13.9062V11.7188C9.375 11.1147 8.88531 10.625 8.28125 10.625Z" fill="white"/>
<path d="M12.8125 15C14.0206 15 15 14.0206 15 12.8125C15 11.6044 14.0206 10.625 12.8125 10.625C11.6044 10.625 10.625 11.6044 10.625 12.8125C10.625 14.0206 11.6044 15 12.8125 15Z" fill="white"/>
</svg>
