<svg width="30" height="30" viewBox="0 0 30 30" fill="none" xmlns="http://www.w3.org/2000/svg">
<circle cx="15" cy="15" r="14.5" stroke="white"/>
<path fill-rule="evenodd" clip-rule="evenodd" d="M7.8541 11C6.83011 11 6 11.8301 6 12.8541V17.8571C6 19.8619 6 20.8643 6.45983 21.5961C6.69961 21.9777 7.02229 22.3004 7.4039 22.5402C8.13571 23 9.1381 23 11.1429 23H18.8571C20.8619 23 21.8643 23 22.5961 22.5402C22.9777 22.3004 23.3004 21.9777 23.5402 21.5961C24 20.8643 24 19.8619 24 17.8571V12.8541C24 11.8301 23.1699 11 22.1459 11C21.4436 11 20.8016 10.6032 20.4875 9.97508L19.6667 8.33333L19.6666 8.33329C19.5567 8.1134 19.5017 8.00345 19.4394 7.90782C19.1141 7.40882 18.5833 7.08078 17.9915 7.01299C17.8781 7 17.7552 7 17.5093 7H12.4907C12.2448 7 12.1219 7 12.0085 7.01299C11.4167 7.08078 10.8859 7.40882 10.5606 7.90782C10.4983 8.00346 10.4433 8.11342 10.3333 8.33333L9.51246 9.97508C9.19839 10.6032 8.55638 11 7.8541 11ZM17 16C17 17.1046 16.1046 18 15 18C13.8954 18 13 17.1046 13 16C13 14.8954 13.8954 14 15 14C16.1046 14 17 14.8954 17 16ZM19 16C19 18.2091 17.2091 20 15 20C12.7909 20 11 18.2091 11 16C11 13.7909 12.7909 12 15 12C17.2091 12 19 13.7909 19 16Z" fill="white"/>
</svg>
