<svg width="18" height="18" viewBox="0 0 18 18" fill="none" xmlns="http://www.w3.org/2000/svg">
<path d="M17.5813 17.5813C17.3131 17.8494 16.9493 18 16.5701 18C16.1909 18 15.8271 17.8494 15.5589 17.5813L9 11.0223L2.44106 17.5813C2.17286 17.8494 1.80914 18 1.4299 18C1.05066 18 0.68695 17.8494 0.418746 17.5813C0.150623 17.3131 0 16.9493 0 16.5701C0 16.1909 0.150623 15.8271 0.418746 15.5589L6.97769 9L0.418746 2.44106C0.150623 2.17286 0 1.80914 0 1.4299C0 1.05066 0.150623 0.686948 0.418746 0.418744C0.68695 0.150621 1.05066 -7.0353e-07 1.4299 -7.0353e-07C1.80914 -7.0353e-07 2.17286 0.150621 2.44106 0.418744L9 6.97768L15.5589 0.418744C15.8271 0.150621 16.1909 -7.0353e-07 16.5701 -7.0353e-07C16.9493 -7.0353e-07 17.3131 0.150621 17.5813 0.418744C17.8494 0.686948 18 1.05066 18 1.4299C18 1.80914 17.8494 2.17286 17.5813 2.44106L11.0223 9L17.5813 15.5589C17.8494 15.8271 18 16.1909 18 16.5701C18 16.9493 17.8494 17.3131 17.5813 17.5813Z" fill="#835898"/>
</svg>
