<svg width="128" height="128" viewBox="0 0 128 128" fill="none" xmlns="http://www.w3.org/2000/svg">
<circle cx="64" cy="64" r="64" fill="#FCDDEE"/>
<path d="M72.9213 61.9416C67.3987 66.2594 67.2985 69.2715 67.2985 74.4923C67.2985 76.3998 66.2946 78.609 61.3745 78.609C57.2577 78.609 55.8519 77.103 55.8519 71.8816C55.8519 63.2467 59.6674 59.13 62.5793 56.62C65.8926 53.8084 71.5154 50.696 71.5154 45.2737C71.5154 40.6547 67.4994 38.4466 62.4785 38.4466C52.2368 38.4466 54.446 46.1773 49.0242 46.1773C46.3133 46.1773 43 44.3701 43 40.4543C43 35.0325 49.2252 27 62.7797 27C75.6316 27 84.1669 34.1289 84.1669 43.5672C84.1669 53.0055 75.6322 59.8331 72.9213 61.9416ZM69.206 93.2682C69.206 97.3855 65.7924 101 61.4747 101C57.1575 101 53.8436 97.3855 53.8436 93.2682C53.8436 89.0512 57.2577 85.5374 61.4747 85.5374C65.6922 85.5374 69.206 89.0518 69.206 93.2682Z" fill="url(#paint0_linear_1811_5431)"/>
<defs>
<linearGradient id="paint0_linear_1811_5431" x1="43" y1="64" x2="84.1669" y2="64" gradientUnits="userSpaceOnUse">
<stop stop-color="#EEAEE0"/>
<stop offset="1" stop-color="#EC86BD"/>
</linearGradient>
</defs>
</svg>
