<svg width="128" height="128" viewBox="0 0 128 128" fill="none" xmlns="http://www.w3.org/2000/svg">
<circle cx="64" cy="64" r="64" fill="#FFEBE0"/>
<path d="M88.6552 52.3276C88.6552 38.8918 77.7636 28.0002 64.3279 28C50.9213 27.9998 40.0641 38.8029 40.0003 52.2094C39.9659 59.4188 43.0682 65.9037 48.0209 70.3798C51.7983 73.7935 53.9199 78.671 53.9199 83.7624V83.7626H74.7354C74.7354 78.6204 76.9478 73.7522 80.7421 70.2818C85.6051 65.834 88.6552 59.4373 88.6552 52.3276Z" fill="url(#paint0_linear_1811_5369)"/>
<path d="M44.3374 66.1935C45.403 67.7264 46.6397 69.1314 48.021 70.3797C51.7983 73.7935 53.92 78.671 53.92 83.7626H74.7355C74.7355 78.6204 76.9478 73.7522 80.7422 70.2818C82.0799 69.0583 83.2795 67.6863 84.3173 66.1935H44.3374Z" fill="url(#paint1_linear_1811_5369)"/>
<path d="M64.3277 102C68.2827 102 71.489 98.7937 71.489 94.8387C71.489 90.8836 68.2827 87.6774 64.3277 87.6774C60.3726 87.6774 57.1664 90.8836 57.1664 94.8387C57.1664 98.7937 60.3726 102 64.3277 102Z" fill="url(#paint2_linear_1811_5369)"/>
<path d="M73.0167 95.0296H55.6386C53.6875 95.0296 52.1057 93.4478 52.1057 91.4967C52.1057 89.5456 53.6875 87.9638 55.6386 87.9638H73.0167C74.9678 87.9638 76.5496 89.5456 76.5496 91.4967C76.5496 93.4478 74.9678 95.0296 73.0167 95.0296Z" fill="url(#paint3_linear_1811_5369)"/>
<path d="M73.0167 87.9639H55.6386C53.6875 87.9639 52.1057 86.3821 52.1057 84.431C52.1057 82.4799 53.6875 80.8981 55.6386 80.8981H73.0167C74.9678 80.8981 76.5496 82.4799 76.5496 84.431C76.5496 86.3821 74.9678 87.9639 73.0167 87.9639Z" fill="url(#paint4_linear_1811_5369)"/>
<path d="M64.3277 78.2709C72.5095 78.2709 79.1422 71.6383 79.1422 63.4564C79.1422 55.2746 72.5095 48.6419 64.3277 48.6419C56.1459 48.6419 49.5132 55.2746 49.5132 63.4564C49.5132 71.6383 56.1459 78.2709 64.3277 78.2709Z" fill="url(#paint5_linear_1811_5369)"/>
<defs>
<linearGradient id="paint0_linear_1811_5369" x1="53.8063" y1="45.5255" x2="80.2632" y2="71.9824" gradientUnits="userSpaceOnUse">
<stop stop-color="#FBEB9A"/>
<stop offset="1" stop-color="#EAAA3D"/>
</linearGradient>
<linearGradient id="paint1_linear_1811_5369" x1="64.3273" y1="70.6494" x2="64.3273" y2="80.8732" gradientUnits="userSpaceOnUse">
<stop stop-color="#FE7701" stop-opacity="0"/>
<stop offset="0.1854" stop-color="#E1A574" stop-opacity="0.185"/>
<stop offset="0.4314" stop-color="#D69367" stop-opacity="0.431"/>
<stop offset="0.7114" stop-color="#DA9D86" stop-opacity="0.711"/>
<stop offset="1" stop-color="#F8AFAF"/>
</linearGradient>
<linearGradient id="paint2_linear_1811_5369" x1="64.3277" y1="91.7419" x2="64.3277" y2="97.5645" gradientUnits="userSpaceOnUse">
<stop stop-color="#5A5A5A"/>
<stop offset="1" stop-color="#444444"/>
</linearGradient>
<linearGradient id="paint3_linear_1811_5369" x1="64.3276" y1="89.969" x2="64.3276" y2="92.8415" gradientUnits="userSpaceOnUse">
<stop stop-color="#B4D2E2"/>
<stop offset="1" stop-color="#8CB7E4"/>
</linearGradient>
<linearGradient id="paint4_linear_1811_5369" x1="64.3276" y1="82.9032" x2="64.3276" y2="85.7758" gradientUnits="userSpaceOnUse">
<stop stop-color="#B4D2E2"/>
<stop offset="1" stop-color="#8CB7E4"/>
</linearGradient>
<linearGradient id="paint5_linear_1811_5369" x1="64.3277" y1="69.44" x2="64.3277" y2="36.4851" gradientUnits="userSpaceOnUse">
<stop stop-color="#FFF5C6" stop-opacity="0"/>
<stop offset="1" stop-color="#FFF5C6"/>
</linearGradient>
</defs>
</svg>
