<svg width="12" height="12" viewBox="0 0 12 12" fill="none" xmlns="http://www.w3.org/2000/svg">
<g clip-path="url(#clip0_744_5636)">
<path d="M6.42801 8.01687L4.91351 9.53137C4.4738 9.95933 3.88327 10.197 3.26968 10.1929C2.6561 10.1887 2.06881 9.94322 1.63487 9.5094C1.20093 9.07558 0.955239 8.48836 0.950955 7.87478C0.94667 7.2612 1.18414 6.6706 1.61197 6.23076L3.12648 4.71487C3.21353 4.62775 3.26242 4.50962 3.26237 4.38646C3.26233 4.2633 3.21336 4.1452 3.12624 4.05814C3.03912 3.97108 2.92099 3.9222 2.79783 3.92224C2.67467 3.92228 2.55657 3.97125 2.46951 4.05837L0.955475 5.57426C0.343672 6.18637 8.75965e-05 7.01645 0.000305279 7.88189C0.000522962 8.74733 0.344525 9.57723 0.956636 10.189C1.56875 10.8008 2.39882 11.1444 3.26426 11.1442C4.1297 11.144 4.9596 10.8 5.5714 10.1879L7.0859 8.67337C7.17048 8.58581 7.21727 8.46853 7.21622 8.34679C7.21516 8.22506 7.16633 8.10861 7.08025 8.02253C6.99417 7.93644 6.87772 7.88762 6.75598 7.88656C6.63425 7.8855 6.51697 7.9323 6.4294 8.01687H6.42801Z" fill="white"/>
<path d="M10.1883 0.956904C9.88619 0.652711 9.52671 0.411498 9.1307 0.247242C8.73468 0.0829856 8.31 -0.00104764 7.88128 1.14404e-05C7.45277 -0.00112686 7.02829 0.0826906 6.63238 0.246617C6.23647 0.410544 5.87698 0.651328 5.5747 0.955047L4.05788 2.47001C3.97076 2.55707 3.9218 2.67517 3.92175 2.79833C3.92171 2.92149 3.97059 3.03963 4.05765 3.12674C4.14471 3.21386 4.26281 3.26283 4.38597 3.26287C4.50913 3.26292 4.62726 3.21403 4.71438 3.12698L6.23028 1.61248C6.44642 1.39503 6.70356 1.22262 6.9868 1.10522C7.27004 0.987833 7.57375 0.927794 7.88035 0.928583C8.34197 0.928736 8.79318 1.06575 9.17695 1.3223C9.56072 1.57885 9.85981 1.94342 10.0364 2.36992C10.213 2.79643 10.2592 3.26571 10.1691 3.71847C10.0791 4.17122 9.8568 4.5871 9.53042 4.91355L8.01592 6.42805C7.9288 6.51517 7.87986 6.63333 7.87986 6.75653C7.87986 6.87973 7.9288 6.99789 8.01592 7.08501C8.10304 7.17213 8.2212 7.22107 8.3444 7.22107C8.46761 7.22107 8.58576 7.17213 8.67288 7.08501L10.1874 5.57144C10.7984 4.95909 11.1416 4.12942 11.1418 3.26436C11.142 2.39931 10.7991 1.5695 10.1883 0.956904Z" fill="white"/>
<path d="M6.63601 3.8503L3.8503 6.63602C3.80595 6.67884 3.77058 6.73008 3.74625 6.78672C3.72192 6.84336 3.70911 6.90429 3.70857 6.96594C3.70804 7.02758 3.71979 7.08872 3.74313 7.14578C3.76648 7.20284 3.80095 7.25468 3.84454 7.29827C3.88814 7.34186 3.93997 7.37634 3.99703 7.39968C4.05409 7.42303 4.11523 7.43477 4.17688 7.43424C4.23852 7.4337 4.29945 7.42089 4.35609 7.39656C4.41274 7.37223 4.46397 7.33686 4.5068 7.29251L7.29251 4.5068C7.37709 4.41924 7.42388 4.30196 7.42283 4.18022C7.42177 4.05849 7.37294 3.94204 7.28686 3.85596C7.20077 3.76987 7.08433 3.72105 6.96259 3.71999C6.84086 3.71893 6.72358 3.76573 6.63601 3.8503Z" fill="white"/>
</g>
<defs>
<clipPath id="clip0_744_5636">
<rect width="11.1429" height="11.1429" fill="white"/>
</clipPath>
</defs>
</svg>
