<svg width="15" height="18" viewBox="0 0 15 18" fill="none" xmlns="http://www.w3.org/2000/svg">
<path d="M7.42275 3.5V0L12.0621 4.375L7.42275 8.75V5.25C5.94623 5.25 4.53019 5.80312 3.48613 6.78769C2.44208 7.77226 1.85553 9.10761 1.85553 10.5C1.85553 11.8924 2.44208 13.2277 3.48613 14.2123C4.53019 15.1969 5.94623 15.75 7.42275 15.75C8.89927 15.75 10.3153 15.1969 11.3594 14.2123C12.4034 13.2277 12.99 11.8924 12.99 10.5H14.8457C14.8457 12.3565 14.0636 14.137 12.6716 15.4497C11.2795 16.7625 9.39144 17.5 7.42275 17.5C5.45406 17.5 3.566 16.7625 2.17393 15.4497C0.781855 14.137 -0.000204086 12.3565 -0.000204086 10.5C-0.000204086 8.64348 0.781855 6.86301 2.17393 5.55025C3.566 4.2375 5.45406 3.5 7.42275 3.5Z" fill="white"/>
</svg>
