<svg width="26" height="26" viewBox="0 0 26 26" fill="none" xmlns="http://www.w3.org/2000/svg">
<path fill-rule="evenodd" clip-rule="evenodd" d="M13.847 5.64816C15.3022 4.1929 17.6617 4.19291 19.1169 5.64816C20.5722 7.10342 20.5722 9.46287 19.1169 10.9181L10.5161 19.5189C9.9511 20.0839 9.18803 20.4063 8.38908 20.4176L6.33877 20.4465C5.21657 20.4623 4.30276 19.5485 4.31858 18.4263L4.34748 16.376C4.35875 15.577 4.68114 14.814 5.24614 14.249L13.847 5.64816ZM17.8224 6.94271C17.0821 6.20241 15.8818 6.20241 15.1415 6.94271L6.54068 15.5435C6.3127 15.7715 6.18262 16.0794 6.17807 16.4018L6.14917 18.4521C6.14789 18.5431 6.22198 18.6172 6.31297 18.6159L8.36328 18.587C8.68566 18.5825 8.99357 18.4524 9.22155 18.2244L17.8224 9.62358C18.5627 8.88328 18.5627 7.68301 17.8224 6.94271Z" fill="white"/>
<path fill-rule="evenodd" clip-rule="evenodd" d="M16.4817 11.5977L13.1696 8.28411L14.4639 6.98926L17.7759 10.3029L16.4817 11.5977Z" fill="white"/>
<path fill-rule="evenodd" clip-rule="evenodd" d="M13.2505 20.2626C13.2505 19.757 13.6603 19.3472 14.1659 19.3472H21.7031C22.2086 19.3472 22.6185 19.757 22.6185 20.2626C22.6185 20.7681 22.2086 21.1779 21.7031 21.1779H14.1659C13.6603 21.1779 13.2505 20.7681 13.2505 20.2626Z" fill="white"/>
</svg>
