<svg width="24" height="24" viewBox="0 0 24 24" fill="none" xmlns="http://www.w3.org/2000/svg">
<circle cx="12" cy="12" r="10" fill="#E6DCF7"/>
<path d="M15.1471 18C15.6427 18 16 17.673 16 17.2349V6.80441C16 6.36635 15.6427 6 15.1325 6C14.7756 6 14.5352 6.14397 14.1491 6.47098L10.9354 9.19782C10.8822 9.2374 10.8148 9.25832 10.7457 9.2567H8.58167C7.55407 9.2567 7 9.76032 7 10.7411V13.2785C7 14.2595 7.55407 14.7628 8.58136 14.7628H10.7457C10.8188 14.7628 10.8841 14.7824 10.9354 14.8217L14.1491 17.5751C14.4985 17.8691 14.7902 18 15.1471 18Z" fill="#7E3CEB"/>
</svg>
