<svg width="128" height="128" viewBox="0 0 128 128" fill="none" xmlns="http://www.w3.org/2000/svg">
<circle cx="64" cy="64" r="64" fill="#FFE0E3"/>
<path d="M100.697 50.5046L100.62 50.0169C99.1628 40.71 91.4497 33.5969 82.0456 33.0424C81.9331 33.0349 81.8208 33.0288 81.7113 33.0242C81.3633 33.009 81.0124 33 80.6661 33C75.1376 33 69.919 35.0039 65.9705 38.6424C65.2565 39.3002 64.5987 39.9976 64.0002 40.7284C63.4016 39.9976 62.7438 39.3004 62.0298 38.6424C58.081 35.0039 52.8625 33 47.3339 33C46.9876 33 46.6367 33.009 46.2887 33.0243C46.1793 33.0289 46.0669 33.035 45.9544 33.0426C36.5505 33.5971 28.8372 40.7101 27.3802 50.017L27.3028 50.5048C25.659 61.0088 30.8137 71.4369 40.2011 76.4274C40.3728 76.5185 40.5475 76.6113 40.7223 76.7024C49.7974 81.4469 57.5008 87.3082 61.3687 94.3428C62.5024 96.4046 65.4976 96.4046 66.6313 94.3428C70.4992 87.3082 78.2026 81.4469 87.2777 76.7024C87.4524 76.6113 87.6272 76.5185 87.7989 76.4274C97.1862 71.4367 102.341 61.0086 100.697 50.5046Z" fill="url(#paint0_linear_1811_5306)"/>
<path d="M62.0296 38.6424C58.081 35.0039 52.8623 33 47.3339 33C46.9874 33 46.6366 33.009 46.2887 33.0243C46.1793 33.0289 46.0668 33.035 45.9545 33.0426C36.5504 33.5971 28.8372 40.7101 27.3802 50.017L27.3027 50.5046C26.1084 58.137 28.506 65.7269 33.5061 71.2223L64 40.7284C63.4014 39.9976 62.7436 39.3004 62.0296 38.6424Z" fill="url(#paint1_linear_1811_5306)"/>
<path d="M27.5676 59.691C29.0893 66.7161 33.5981 72.9168 40.2012 76.4272C40.3728 76.5183 40.5475 76.611 40.7223 76.7021C49.7975 81.4467 57.5009 87.308 61.3688 94.3426C62.5024 96.4044 65.4976 96.4044 66.6313 94.3426C70.4992 87.308 78.2026 81.4465 87.2778 76.7021C87.4524 76.611 87.6272 76.5183 87.7989 76.4272C94.402 72.9168 98.9107 66.7161 100.433 59.691H27.5676Z" fill="url(#paint2_linear_1811_5306)"/>
<path d="M100.697 50.5046L100.62 50.0169C99.483 42.7548 94.537 36.8288 87.9509 34.3118L43.8477 78.4149C51.5473 82.8357 57.9536 88.1316 61.3688 94.3428C62.5024 96.4046 65.4976 96.4046 66.6313 94.3428C70.4992 87.3082 78.2026 81.4468 87.2778 76.7024C87.4524 76.6113 87.6272 76.5185 87.7989 76.4274C97.1862 71.4367 102.341 61.0086 100.697 50.5046Z" fill="url(#paint3_linear_1811_5306)"/>
<defs>
<linearGradient id="paint0_linear_1811_5306" x1="55.7273" y1="40.2783" x2="72.7428" y2="69.5995" gradientUnits="userSpaceOnUse">
<stop stop-color="#FDB4BA"/>
<stop offset="0.237" stop-color="#FDA7AD"/>
<stop offset="0.6831" stop-color="#FE828B"/>
<stop offset="1" stop-color="#FE646F"/>
</linearGradient>
<linearGradient id="paint1_linear_1811_5306" x1="46.5551" y1="41.7629" x2="58.2653" y2="30.0527" gradientUnits="userSpaceOnUse">
<stop stop-color="#FE646F" stop-opacity="0"/>
<stop offset="0.2018" stop-color="#F95E69" stop-opacity="0.202"/>
<stop offset="0.4738" stop-color="#EC4D58" stop-opacity="0.474"/>
<stop offset="0.7843" stop-color="#D7313D" stop-opacity="0.784"/>
<stop offset="1" stop-color="#C41926"/>
</linearGradient>
<linearGradient id="paint2_linear_1811_5306" x1="64" y1="72.6484" x2="64" y2="95.8928" gradientUnits="userSpaceOnUse">
<stop stop-color="#FE646F" stop-opacity="0"/>
<stop offset="0.2018" stop-color="#F95E69" stop-opacity="0.202"/>
<stop offset="0.4738" stop-color="#EC4D58" stop-opacity="0.474"/>
<stop offset="0.7843" stop-color="#D7313D" stop-opacity="0.784"/>
<stop offset="1" stop-color="#C41926"/>
</linearGradient>
<linearGradient id="paint3_linear_1811_5306" x1="72.3227" y1="61.7174" x2="88.7305" y2="79.0367" gradientUnits="userSpaceOnUse">
<stop stop-color="#FE646F" stop-opacity="0"/>
<stop offset="0.2018" stop-color="#F95E69" stop-opacity="0.202"/>
<stop offset="0.4738" stop-color="#EC4D58" stop-opacity="0.474"/>
<stop offset="0.7843" stop-color="#D7313D" stop-opacity="0.784"/>
<stop offset="1" stop-color="#C41926"/>
</linearGradient>
</defs>
</svg>
