<svg width="27" height="27" viewBox="0 0 27 27" fill="none" xmlns="http://www.w3.org/2000/svg">
<g clip-path="url(#clip0_439_3100)">
<path d="M6.83887 25.3069C6.83927 24.8594 7.01732 24.4305 7.33387 24.1144L15.9649 15.4833C16.2261 15.2222 16.4334 14.9121 16.5747 14.5708C16.7161 14.2295 16.7889 13.8638 16.7889 13.4943C16.7889 13.1249 16.7161 12.7592 16.5747 12.4179C16.4334 12.0766 16.2261 11.7665 15.9649 11.5053L7.34513 2.8856C7.03773 2.56733 6.86764 2.14107 6.87149 1.69861C6.87533 1.25615 7.05281 0.832906 7.36568 0.52003C7.67856 0.207154 8.10181 0.0296807 8.54426 0.0258359C8.98672 0.0219911 9.41299 0.192083 9.73125 0.499475L18.351 9.11247C19.51 10.2738 20.161 11.8475 20.161 13.4882C20.161 15.1289 19.51 16.7026 18.351 17.8638L9.72 26.5005C9.484 26.7366 9.18324 26.8975 8.8558 26.9626C8.52836 27.0278 8.18894 26.9944 7.88049 26.8666C7.57205 26.7388 7.30844 26.5224 7.12303 26.2448C6.93761 25.9671 6.83872 25.6407 6.83887 25.3069Z" fill="#9199A6"/>
</g>
<defs>
<clipPath id="clip0_439_3100">
<rect width="27" height="27" fill="white" transform="translate(27 27) rotate(-180)"/>
</clipPath>
</defs>
</svg>
