<svg width="24" height="26" viewBox="0 0 24 26" fill="none" xmlns="http://www.w3.org/2000/svg">
<path d="M16.449 14.1416C16.449 16.0758 14.135 18.4581 12.82 19.5957C12.289 20.0554 11.531 20.0554 11 19.5957C9.685 18.4581 7.449 16.0758 7.449 14.1416C7.449 12.707 8.456 11.5442 9.699 11.5442C10.942 11.5442 11.949 12.707 11.949 14.1416C11.949 12.707 12.956 11.5442 14.199 11.5442C15.442 11.5442 16.449 12.707 16.449 14.1416ZM24 7.87102V19.4152C24 22.5982 21.533 25.1873 18.5 25.1873H5.5C2.467 25.1873 0 22.5982 0 19.4152V7.87102C0 4.68798 2.467 2.09894 5.5 2.09894H6V1.5742C6 0.704194 6.671 0 7.5 0C8.329 0 9 0.704194 9 1.5742V2.09894H15V1.5742C15 0.704194 15.671 0 16.5 0C17.329 0 18 0.704194 18 1.5742V2.09894H18.5C21.533 2.09894 24 4.68798 24 7.87102ZM21 19.4152V9.44522H3V19.4152C3 20.8613 4.122 22.0388 5.5 22.0388H18.5C19.878 22.0388 21 20.8613 21 19.4152Z" fill="#424B58"/>
</svg>
