<svg width="27" height="27" viewBox="0 0 27 27" fill="none" xmlns="http://www.w3.org/2000/svg">
<path fill-rule="evenodd" clip-rule="evenodd" d="M5.93377 11.3922C5.625 12.0635 5.625 12.8273 5.625 14.3547V19.1252C5.625 21.2465 5.625 22.3072 6.28401 22.9662C6.89607 23.5782 7.85458 23.6218 9.6875 23.6249V18.0002C9.6875 16.8266 10.6389 15.8752 11.8125 15.8752H15.1875C16.3611 15.8752 17.3125 16.8266 17.3125 18.0002V23.6249C19.1454 23.6218 20.1039 23.5782 20.716 22.9662C21.375 22.3072 21.375 21.2465 21.375 19.1252V14.3547C21.375 12.8273 21.375 12.0635 21.0662 11.3922C20.7575 10.7209 20.1776 10.2238 19.0178 9.22975L17.8928 8.26547C15.7966 6.4687 14.7485 5.57031 13.5 5.57031C12.2515 5.57031 11.2034 6.4687 9.10716 8.26547L7.98216 9.22975C6.82241 10.2238 6.24254 10.7209 5.93377 11.3922ZM15.3125 23.6252V18.0002C15.3125 17.9312 15.2565 17.8752 15.1875 17.8752H11.8125C11.7435 17.8752 11.6875 17.9312 11.6875 18.0002V23.6252H15.3125Z" fill="black"/>
</svg>
