<svg width="128" height="128" viewBox="0 0 128 128" fill="none" xmlns="http://www.w3.org/2000/svg">
<circle cx="64" cy="64" r="64" fill="#DED2EF"/>
<path d="M66.1331 51.8207C55.6557 51.8207 47.2049 58.9942 44.0103 68.118C43.3068 70.1272 43.0856 72.3267 43.0856 74.5782C43.0856 87.3069 53.4044 97.6257 66.1331 97.6257H77.9525C79.2929 97.6257 80.6043 97.5048 81.8819 97.2852L88.8418 100.742C90.5721 101.602 92.5637 100.192 92.3279 98.2743L91.6898 93.0841C97.3392 88.8837 101 82.159 101 74.5782C101 62.0633 91.0252 51.8783 78.5924 51.5394L66.1331 51.8207Z" fill="url(#paint0_linear_1811_5316)"/>
<path d="M91.691 93.0839L92.328 98.2741C92.5645 100.192 90.5723 101.603 88.8427 100.742L81.8823 97.2859C80.604 97.505 79.2938 97.6255 77.9531 97.6255H73.5131L44.006 68.1169L44.0031 68.1241C46.7338 58.9946 55.6457 51.8209 66.1334 51.8209L78.5928 51.5394C84.7028 51.706 90.2192 54.2507 94.2505 58.2807C98.4206 62.4523 101 68.2141 101 74.5781C101 82.1595 97.3396 88.8848 91.691 93.0839Z" fill="url(#paint1_linear_1811_5316)"/>
<path d="M99.4256 82.9595H44.6573C48.0101 91.5442 56.361 97.6261 66.1329 97.6261H77.9523C79.2927 97.6261 80.6041 97.5053 81.8817 97.2856L88.8416 100.743C90.5719 101.602 92.5635 100.192 92.3277 98.2747L91.6896 93.0846C95.1351 90.5227 97.8388 87.0208 99.4256 82.9595Z" fill="url(#paint2_linear_1811_5316)"/>
<path d="M47.6752 27H58.2778C69.6963 27 78.9529 36.2565 78.9529 47.6752C78.9529 48.9958 78.8292 50.2877 78.5924 51.5394C76.7827 61.1111 68.3756 68.2051 58.2778 68.2051H47.675C46.4726 68.2051 45.2963 68.2418 44.15 68.0448L37.9064 71.1461C36.3542 71.9171 34.5676 70.6522 34.7791 68.932L35.3516 64.2761C30.284 60.5082 27 54.4756 27 47.6752C27 36.2565 36.2565 27 47.6752 27Z" fill="url(#paint3_linear_1811_5316)"/>
<path d="M28.1794 54.5681C29.5621 58.4771 32.0855 61.8472 35.3516 64.2757L34.7792 68.9316C34.5677 70.6517 36.3544 71.9167 37.9065 71.1457L44.1501 68.0442C45.2962 68.2412 46.4727 68.2045 47.675 68.2045H58.2777C67.2789 68.2045 74.79 62.5969 77.629 54.5681H28.1794Z" fill="url(#paint4_linear_1811_5316)"/>
<path d="M64.2334 49.6124C66.4647 49.6124 68.2736 47.8035 68.2736 45.5721C68.2736 43.3407 66.4647 41.5319 64.2334 41.5319C62.002 41.5319 60.1931 43.3407 60.1931 45.5721C60.1931 47.8035 62.002 49.6124 64.2334 49.6124Z" fill="url(#paint5_linear_1811_5316)"/>
<path d="M52.9768 49.6124C55.2081 49.6124 57.017 47.8035 57.017 45.5721C57.017 43.3407 55.2081 41.5319 52.9768 41.5319C50.7454 41.5319 48.9365 43.3407 48.9365 45.5721C48.9365 47.8035 50.7454 49.6124 52.9768 49.6124Z" fill="url(#paint6_linear_1811_5316)"/>
<path d="M41.7201 49.6124C43.9514 49.6124 45.7603 47.8035 45.7603 45.5721C45.7603 43.3407 43.9514 41.5319 41.7201 41.5319C39.4887 41.5319 37.6798 43.3407 37.6798 45.5721C37.6798 47.8035 39.4887 49.6124 41.7201 49.6124Z" fill="url(#paint7_linear_1811_5316)"/>
<path d="M83.2999 79.8491C85.5313 79.8491 87.3402 78.0402 87.3402 75.8088C87.3402 73.5774 85.5313 71.7686 83.2999 71.7686C81.0685 71.7686 79.2596 73.5774 79.2596 75.8088C79.2596 78.0402 81.0685 79.8491 83.2999 79.8491Z" fill="url(#paint8_linear_1811_5316)"/>
<path d="M72.0433 79.8491C74.2747 79.8491 76.0836 78.0402 76.0836 75.8088C76.0836 73.5774 74.2747 71.7686 72.0433 71.7686C69.8119 71.7686 68.0031 73.5774 68.0031 75.8088C68.0031 78.0402 69.8119 79.8491 72.0433 79.8491Z" fill="url(#paint9_linear_1811_5316)"/>
<path d="M60.7853 79.8491C63.0166 79.8491 64.8255 78.0402 64.8255 75.8088C64.8255 73.5774 63.0166 71.7686 60.7853 71.7686C58.5539 71.7686 56.745 73.5774 56.745 75.8088C56.745 78.0402 58.5539 79.8491 60.7853 79.8491Z" fill="url(#paint10_linear_1811_5316)"/>
<path d="M78.5913 51.5395C78.3792 51.5337 78.1665 51.5303 77.953 51.5303H66.1338C55.6481 51.5303 46.7993 58.5332 44.0056 68.1168L44.1509 68.0447C45.297 68.2417 46.4734 68.3501 47.6757 68.3501H58.2785C68.376 68.35 76.7814 61.1107 78.5913 51.5395Z" fill="url(#paint11_linear_1811_5316)"/>
<defs>
<linearGradient id="paint0_linear_1811_5316" x1="72.0428" y1="59.2193" x2="72.0428" y2="89.7776" gradientUnits="userSpaceOnUse">
<stop stop-color="#F9AEE4"/>
<stop offset="1" stop-color="#F5C6E0"/>
</linearGradient>
<linearGradient id="paint1_linear_1811_5316" x1="87.3141" y1="81.3897" x2="58.1642" y2="52.2398" gradientUnits="userSpaceOnUse">
<stop stop-color="#E09AC1" stop-opacity="0"/>
<stop offset="1" stop-color="#E7A2C8"/>
</linearGradient>
<linearGradient id="paint2_linear_1811_5316" x1="72.0416" y1="85.9658" x2="72.0416" y2="97.9961" gradientUnits="userSpaceOnUse">
<stop stop-color="#8A1958" stop-opacity="0"/>
<stop offset="0.0001" stop-color="#E7ADCE" stop-opacity="0"/>
<stop offset="1" stop-color="#E7ACCD"/>
</linearGradient>
<linearGradient id="paint3_linear_1811_5316" x1="40.1463" y1="29.1743" x2="70.9985" y2="78.2771" gradientUnits="userSpaceOnUse">
<stop stop-color="#76CCF8"/>
<stop offset="0.833" stop-color="#A3BCE7"/>
<stop offset="1" stop-color="#91A1C2"/>
</linearGradient>
<linearGradient id="paint4_linear_1811_5316" x1="52.9041" y1="56.406" x2="52.9041" y2="68.3075" gradientUnits="userSpaceOnUse">
<stop stop-color="#8CA0D5" stop-opacity="0"/>
<stop offset="1" stop-color="#8FA8D9"/>
</linearGradient>
<linearGradient id="paint5_linear_1811_5316" x1="66.4664" y1="43.3391" x2="60.731" y2="49.0745" gradientUnits="userSpaceOnUse">
<stop stop-color="#EEF4FF"/>
<stop offset="1" stop-color="#CFE7FD"/>
</linearGradient>
<linearGradient id="paint6_linear_1811_5316" x1="55.2098" y1="43.3391" x2="49.4744" y2="49.0745" gradientUnits="userSpaceOnUse">
<stop stop-color="#EEF4FF"/>
<stop offset="1" stop-color="#CFE7FD"/>
</linearGradient>
<linearGradient id="paint7_linear_1811_5316" x1="43.9533" y1="43.3391" x2="38.2178" y2="49.0745" gradientUnits="userSpaceOnUse">
<stop stop-color="#EEF4FF"/>
<stop offset="1" stop-color="#CFE7FD"/>
</linearGradient>
<linearGradient id="paint8_linear_1811_5316" x1="85.533" y1="73.5758" x2="79.7975" y2="79.3112" gradientUnits="userSpaceOnUse">
<stop stop-color="#EEF4FF"/>
<stop offset="1" stop-color="#CFE7FD"/>
</linearGradient>
<linearGradient id="paint9_linear_1811_5316" x1="74.2764" y1="73.5758" x2="68.5409" y2="79.3112" gradientUnits="userSpaceOnUse">
<stop stop-color="#EEF4FF"/>
<stop offset="1" stop-color="#CFE7FD"/>
</linearGradient>
<linearGradient id="paint10_linear_1811_5316" x1="63.0183" y1="73.5758" x2="57.2829" y2="79.3112" gradientUnits="userSpaceOnUse">
<stop stop-color="#EEF4FF"/>
<stop offset="1" stop-color="#CFE7FD"/>
</linearGradient>
<linearGradient id="paint11_linear_1811_5316" x1="61.2984" y1="55.6324" x2="61.2984" y2="70.7673" gradientUnits="userSpaceOnUse">
<stop stop-color="#D2B6EF"/>
<stop offset="1" stop-color="#B7B0EB"/>
</linearGradient>
</defs>
</svg>
