<svg width="30" height="30" viewBox="0 0 30 30" fill="none" xmlns="http://www.w3.org/2000/svg">
<circle cx="15" cy="15" r="14.5" stroke="white"/>
<path d="M6 12.8541C6 11.8301 6.83011 11 7.8541 11V11C8.55638 11 9.19839 10.6032 9.51246 9.97508L10.3333 8.33333C10.4433 8.11342 10.4983 8.00346 10.5606 7.90782C10.8859 7.40882 11.4167 7.08078 12.0085 7.01299C12.1219 7 12.2448 7 12.4907 7H17.5093C17.7552 7 17.8781 7 17.9915 7.01299C18.5833 7.08078 19.1141 7.40882 19.4394 7.90782C19.5017 8.00346 19.5567 8.11342 19.6667 8.33333L20.4875 9.97508C20.8016 10.6032 21.4436 11 22.1459 11V11C23.1699 11 24 11.8301 24 12.8541V17.8571C24 19.8619 24 20.8643 23.5402 21.5961C23.3004 21.9777 22.9777 22.3004 22.5961 22.5402C21.8643 23 20.8619 23 18.8571 23H11.1429C9.1381 23 8.13571 23 7.4039 22.5402C7.02229 22.3004 6.69961 21.9777 6.45983 21.5961C6 20.8643 6 19.8619 6 17.8571V12.8541Z" stroke="white" stroke-width="2"/>
<circle cx="15" cy="16" r="3" stroke="white" stroke-width="2"/>
</svg>
