<svg width="128" height="128" viewBox="0 0 128 128" fill="none" xmlns="http://www.w3.org/2000/svg">
<circle cx="64" cy="64" r="64" fill="#CBCFD6"/>
<path d="M63.9998 27C62.1566 27 60.657 28.4997 60.657 30.3431V43.9464C60.657 45.7899 62.1566 47.2895 63.9998 47.2895C65.8433 47.2895 67.343 45.7899 67.343 43.9464V30.3431C67.343 28.4997 65.8433 27 63.9998 27Z" fill="black"/>
<path opacity="0.3" d="M63.9998 80.7102C62.1566 80.7102 60.657 82.2099 60.657 84.0533V97.6566C60.657 99.5001 62.1566 101 63.9998 101C65.8433 101 67.343 99.5001 67.343 97.6566V84.0533C67.343 82.2099 65.8433 80.7102 63.9998 80.7102Z" fill="black"/>
<path opacity="0.15" d="M49.82 74.8368C48.9269 74.8368 48.0874 75.1851 47.4563 75.8164L37.837 85.4349C36.5342 86.7383 36.5342 88.8594 37.838 90.1638C38.4696 90.7946 39.3089 91.142 40.2009 91.142C41.0932 91.142 41.9322 90.7947 42.5648 90.1628L52.1842 80.5437C52.8153 79.9118 53.1631 79.0728 53.1631 78.1798C53.1631 77.2867 52.8153 76.4472 52.1842 75.8164C51.5526 75.1851 50.7131 74.8368 49.82 74.8368Z" fill="black"/>
<path opacity="0.85" d="M78.1799 53.9448C79.0729 53.9448 79.9125 53.597 80.5438 52.9652L90.1632 43.3467C91.466 42.0433 91.466 39.9222 90.1619 38.6178C88.8594 37.317 86.7391 37.316 85.4353 38.6188L75.8159 48.2379C75.1846 48.8698 74.837 49.7088 74.837 50.6019C74.837 51.4949 75.1849 52.3345 75.8159 52.9652C76.4475 53.5971 77.287 53.9448 78.1799 53.9448Z" fill="black"/>
<path opacity="0.45" d="M80.544 75.8164C79.9124 75.1851 79.073 74.8368 78.1798 74.8368C77.2866 74.8368 76.4471 75.1851 75.8164 75.816C75.1848 76.4473 74.8369 77.2869 74.8369 78.1799C74.8369 79.073 75.1845 79.912 75.8161 80.5439L85.4359 90.164C86.0675 90.7947 86.9068 91.1422 87.7989 91.1422C88.6912 91.1422 89.5302 90.7949 90.1631 90.163C91.4659 88.8596 91.4659 86.7385 90.1628 85.4351L80.544 75.8164Z" fill="black"/>
<path opacity="0.05" d="M47.2895 63.9999C47.2895 62.1564 45.7899 60.6567 43.9464 60.6567H30.3429C28.4997 60.6567 27 62.1564 27 63.9999C27 65.8434 28.4997 67.343 30.3429 67.343H43.9464C45.7899 67.343 47.2895 65.8434 47.2895 63.9999Z" fill="black"/>
<path opacity="0.6" d="M97.6568 60.6567H84.0533C82.2101 60.6567 80.7104 62.1564 80.7104 63.9999C80.7104 65.8434 82.2101 67.343 84.0533 67.343H97.6568C99.5003 67.343 101 65.8434 101 63.9999C101 62.1564 99.5003 60.6567 97.6568 60.6567Z" fill="black"/>
</svg>
