<svg width="27" height="27" viewBox="0 0 27 27" fill="none" xmlns="http://www.w3.org/2000/svg">
<path fill-rule="evenodd" clip-rule="evenodd" d="M6.21079 5.08579C5.625 5.67157 5.625 6.61438 5.625 8.5V19.625C5.625 21.5106 5.625 22.4534 6.21079 23.0392C6.79657 23.625 7.73938 23.625 9.625 23.625H17.375C19.2606 23.625 20.2034 23.625 20.7892 23.0392C21.375 22.4534 21.375 21.5106 21.375 19.625V8.5C21.375 6.61438 21.375 5.67157 20.7892 5.08579C20.2034 4.5 19.2606 4.5 17.375 4.5H9.625C7.73938 4.5 6.79657 4.5 6.21079 5.08579ZM10.125 9.125C9.57272 9.125 9.125 9.57272 9.125 10.125C9.125 10.6773 9.57272 11.125 10.125 11.125H16.875C17.4273 11.125 17.875 10.6773 17.875 10.125C17.875 9.57272 17.4273 9.125 16.875 9.125H10.125ZM10.125 13.625C9.57272 13.625 9.125 14.0727 9.125 14.625C9.125 15.1773 9.57272 15.625 10.125 15.625H16.875C17.4273 15.625 17.875 15.1773 17.875 14.625C17.875 14.0727 17.4273 13.625 16.875 13.625H10.125ZM10.125 18.125C9.57272 18.125 9.125 18.5727 9.125 19.125C9.125 19.6773 9.57272 20.125 10.125 20.125H14.625C15.1773 20.125 15.625 19.6773 15.625 19.125C15.625 18.5727 15.1773 18.125 14.625 18.125H10.125Z" fill="black"/>
</svg>
